<?xml version="1.0" encoding="UTF-8"?>
<svg width="18px" height="18px" viewBox="0 0 18 18" version="1.1" xmlns="http://www.w3.org/2000/svg">
    <g stroke="none" stroke-width="1" fill="none" fill-rule="evenodd">
        <path d="M15.1464844,13.5498047 C14.8017578,14.2753906 14.4160156,14.9394531 13.9892578,15.5419922 C13.4111328,16.3554688 12.9257812,16.9316406 12.5341797,17.2705078 C11.9316406,17.8085938 11.2851562,18.0859375 10.5947266,18.1044922 C10.1064453,18.1044922 9.51660156,17.9648438 8.83007812,17.6816406 C8.14160156,17.3994141 7.51171875,17.2705078 6.93945312,17.2705078 C6.34277344,17.2705078 5.69335938,17.3994141 5.08886719,17.6816406 C4.48242188,17.9648438 3.98828125,18.1123047 3.60351562,18.1259766 C2.94628906,18.1523438 2.28906250,17.8671875 1.63183594,17.2705078 C1.21289062,16.9042969 0.708984375,16.3085938 0.117187500,15.4833984 C-0.515625000,14.6015625 -1.02734375,13.5771484 -1.41992188,12.4091797 C-1.84667969,11.1455078 -2.06054688,9.92578125 -2.06054688,8.74804688 C-2.06054688,7.40429688 -1.77539062,6.23828125 -1.20507812,5.25000000 C-0.754882812,4.44335938 -0.158203125,3.80468750 0.585937500,3.33398438 C1.33007812,2.86328125 2.14453125,2.62109375 3.02929688,2.60351562 C3.54101562,2.60351562 4.20605469,2.76367188 5.02832031,3.07617188 C5.84863281,3.39062500 6.37500000,3.55078125 6.60937500,3.55078125 C6.78710938,3.55078125 7.37597656,3.36523438 8.37207031,2.99609375 C9.31640625,2.65429688 10.1123047,2.51171875 10.7636719,2.56640625 C12.4453125,2.70117188 13.7070312,3.41601562 14.5449219,4.71679688 C13.0449219,5.64648438 12.3027344,6.93164062 12.3183594,8.57031250 C12.3320312,9.85351562 12.8027344,10.9238281 13.7265625,11.7763672 C14.1445312,12.1699219 14.6103516,12.4775391 15.1269531,12.7001953 C15.1367188,12.9853516 15.1445312,13.2705078 15.1464844,13.5498047 Z M10.8925781,-0.556640625 C10.8925781,0.458984375 10.5185547,1.40429688 9.77343750,2.27539062 C8.87695312,3.30273438 7.79492188,3.89941406 6.63671875,3.81054688 C6.62109375,3.67382812 6.61328125,3.52929688 6.61328125,3.37695312 C6.61328125,2.40429688 7.03515625,1.36523438 7.77539062,0.521484375 C8.14550781,0.0957031250 8.61523438,-0.244140625 9.18359375,-0.498046875 C9.75000000,-0.747070312 10.2871094,-0.884765625 10.7949219,-0.908203125 C10.8261719,-0.791015625 10.8925781,-0.673828125 10.8925781,-0.556640625 Z" fill="#000000" fill-rule="nonzero"/>
    </g>
</svg> 